<svg version="1" xmlns="http://www.w3.org/2000/svg" width="385.333" height="385.333" viewBox="0 0 289.000000 289.000000"><path d="M39 9.4v9.4l49.8.5c45.9.4 50.4.6 59.1 2.5 10.8 2.4 17.9 5.6 23.9 10.8 3.7 3.2 10.2 11.3 10.2 12.8 0 .3-11.2.6-24.9.6h-24.9l-.6-2.3c-.3-1.2-.6-3.3-.6-4.6 0-1.3-.3-2.2-.6-1.8-.7.7-18.4 38.6-18.4 39.4 0 .3 2.3-1.4 5.1-3.7 7.9-6.7 9.1-6.9 39.2-7 14.7 0 26.7.4 26.7.9 0 5-8 18.9-15.9 27.3-8.9 9.8-33.2 27-48.6 34.5l-5.5 2.7v6.8c0 3.7.4 6.8.9 6.8 3.4 0 30.5-13.3 45.9-22.4 29.2-17.5 47.5-34.6 56.1-52.5 3-6.3 3.6-8.8 3.9-16 .6-12.2-1.9-18.4-10.7-27.1-9.9-9.8-25-16.8-46.6-21.8C142.1.5 134.9 0 85.6 0H39v9.4zm110-6c37.9 7.4 59.5 18.5 67 34.2 3.1 6.7 3.8 17.1 1.5 25-7 24.8-40.8 53.2-90.3 75.8-6.8 3.1-12.5 5.6-12.8 5.6-.2 0-.4-2.6-.4-5.8v-5.7l6.7-3.5c8.6-4.5 29.6-18.4 38-25.2 3.6-2.9 9-8.2 12-11.8 5.9-7.1 13.3-20.8 13.3-24.6V65h-27.7c-30.4 0-31.7.3-39 6.4-3 2.6-2.8 1.9 4.4-13.6 4.2-9 7.7-16.5 7.9-16.7.2-.2.7 1 1 2.7l.7 3.2h52.8l-2.3-4.2c-3.5-6.3-11-13.3-18-16.7-14.2-6.9-26-8.1-80.8-8.1H40V.9l50.3.4c41.6.3 51.7.7 58.7 2.1z"/><path d="M74.4 5.7L46.2 6l-.6 3.1c-.3 1.7-.3 3.5 0 4s18.3.9 41.2.9c41.8 0 51.3.7 66.5 4.6 17.9 4.6 31.6 16.2 34.5 29.1l1 4.3-25.2.2c-31.3.3-32.8.2-34.1-1.6-.9-1.2-1.9.3-4.8 7.1-2.8 6.6-3.2 8.3-1.9 7.7 7.9-3.3 9.4-3.4 37.6-3.2l28.3.3-1.3 6.5c-.8 3.6-3.2 10.2-5.4 14.8-7 14-19 24.3-50.7 43.2-6.8 4-12.3 7.5-12.3 7.9 0 .3.4 1.2.9 2 1.2 1.8 5.3.2 21.1-8.1 36.7-19.3 63-42.7 70.3-62.6 2.9-8.1 2.8-19-.2-26-2.9-6.4-12.2-15.4-20.6-19.8-18-9.5-50.6-15.8-78-15.2-5.5.2-22.7.4-38.1.5z"/><path d="M39.2 23.5c.7.8 65.9.8 66.6 0 .3-.3-14.7-.5-33.3-.5-18.6 0-33.6.2-33.3.5zM46 28.8l4 3.9v115c0 99.5-.2 115.6-1.5 120-1.9 6.4-8.9 14-16.5 17.9l-5.5 2.9 59.3.3c32.7.1 85.8.1 118 0l58.7-.3-6-3.2c-9.5-4.9-14.2-8.8-15.3-12.5-.6-1.8-1.3-14.3-1.6-27.8-1-47.3-4.8-62.8-19.8-81.7-10.7-13.6-29.4-26.4-48.6-33.3l-6.3-2.3-6 2.8c-5.9 2.9-7.4 4.5-4.1 4.5 2.7 0 10.7 5.4 17.5 11.8 10.3 9.7 17.7 23 21.8 39 1.7 6.7 1.9 11.3 1.9 44.4V267h-32V159.2l4.8-4.1 4.7-4.1h-30l-30 .1 3.7 3.2c2 1.8 4.2 4.5 4.8 6 .6 1.8 1 21 1 54.8V267H91V155.5c0-75.9.3-113 1.1-116.4.9-4.2 2-5.9 6.1-9.6 5.7-5.1 5.5-6-.3-1.4-8 6.3-7.4-4.5-7.4 124.4v115l16.8.3 16.7.2v-53c0-37.3-.3-53.8-1.1-55.3-.6-1.2-2.3-3.4-3.7-5l-2.6-2.7h53.9l-3.7 3.5-3.8 3.4V268l16.8-.2 16.7-.3.3-37.5.2-37.5-2.5-9c-6.2-21.9-18.4-38.6-34.5-47.4l-5-2.8 4.9-2.2c4.4-2.1 5.3-2.2 8.7-1.1 13.9 4.6 32 15.5 42.7 25.9 8.4 8.1 12.4 13.4 17.1 22.9 7.2 14.2 9.4 29 10.4 69.8l.7 25.4 3.5 3.5c1.9 1.9 6.4 5 10 7l6.5 3.5h-229l3.5-2.1c5.1-3.1 11.9-9.8 14.3-14.4l2.2-4 .3-117.9.2-117.8-3.6-3.4c-1.9-1.9-4-3.4-4.5-3.4s.8 1.7 3.1 3.8z"/><path d="M55 149.9c0 71.8-.4 121-.9 122.4-.5 1.4-2.4 4.1-4.1 6.1l-3.2 3.6h192.6l-3.2-3.3-3.2-3.2-.4-33.5c-.5-38.8-1.2-44.4-7.6-57.1-10.4-20.9-25.9-36.3-46.1-45.8-13.7-6.5-14.3-6.2-5.2 2.4 14.6 13.5 23.3 29.4 26.2 47.6.6 3.6 1.1 22.7 1.1 44.1V271h-43V156h-29v115H87V30H55v119.9z"/></svg>